<svg version="1.1" id="Capa_1" xmlns="http://www.w3.org/2000/svg" xmlns:xlink="http://www.w3.org/1999/xlink" x="0px" y="0px" viewBox="0 0 1200 1200" enable-background="new 0 0 1200 1200" xml:space="preserve">
<g>
	<path fill="#65676B" d="M599.984,50C296.712,50,50.016,296.731,50.016,600c0,303.268,246.696,550,549.968,550&#10;&#9;&#9;c51.25,0,101.948-7.047,150.719-20.944c197.632-56.21,350.475-222.786,389.328-424.367c6.593-34.353,9.952-69.554,9.952-104.689&#10;&#9;&#9;C1149.984,296.731,903.253,50,599.984,50z M1074.427,692.031c-34.126,177.081-168.371,323.397-342.024,372.757&#10;&#9;&#9;c-42.803,12.2-87.366,18.399-132.418,18.399c-266.405,0-483.155-216.751-483.155-483.187c0-266.437,216.75-483.188,483.155-483.188&#10;&#9;&#9;c266.436,0,483.186,216.751,483.186,483.188C1083.171,630.895,1080.234,661.854,1074.427,692.031z" style="fill: rgb(46, 0, 214);"/>
	<path fill="#65676B" d="M817.004,702.799c-15.192-40.917-43.437-78.281-82.564-101.292c-36.339-21.371-79.98-29.45-122.838-30.985&#10;&#9;&#9;c-9.78-0.35-19.599-0.374-29.395,0c-25.16,0.961-50.174,4.553-74.012,12.023c-73.234,22.942-119.209,87.331-135.504,157.464&#10;&#9;&#9;c-10.871,46.779,26.904,91.11,77.935,91.108c78.662-0.003,199.587,0.008,298.795,0.017c49.521,0.005,86.858-41.887,78.599-87.701&#10;&#9;&#9;C825.537,729.636,821.92,716.039,817.004,702.799z" style="fill: rgb(46, 0, 214);"/>
	<path fill="#65676B" d="M599.996,515.25c65.089,0,117.856-52.767,117.856-117.858s-52.767-117.858-117.856-117.858&#10;&#9;&#9;c-65.093,0-117.86,52.767-117.86,117.858S534.903,515.25,599.996,515.25z" style="fill: rgb(46, 0, 214);"/>
	<path fill="#65676B" d="M828.587,618.632c-10.758,2.142-14.961,14.931-8.666,23.909c7.872,11.224,14.242,23.839,20.01,35.917&#10;&#9;&#9;c15.892,33.283,28.358,71.173,25.453,108.851c-0.68,8.824,6.871,16.123,15.72,16.123c32.801,0.002,67.599-0.006,97.811-0.003&#10;&#9;&#9;c34.646,0.004,57.413-29.444,54.769-63.411c-0.133-1.719-0.332-3.448-0.594-5.187c-5.893-38.59-32.32-77.76-64.631-97.445&#10;&#9;&#9;c-29.305-17.846-65.132-23.263-98.671-22.588C856.105,615.076,842.133,615.932,828.587,618.632z" style="fill: rgb(46, 0, 214);"/>
	<circle fill="#65676B" cx="848.186" cy="476.14" r="75.522" style="fill: rgb(46, 0, 214);"/>
	<path fill="#65676B" d="M380.067,642.541c6.296-8.978,2.088-21.767-8.665-23.909c-13.546-2.699-27.521-3.556-41.2-3.833&#10;&#9;&#9;c-33.544-0.676-69.371,4.741-98.671,22.588c-32.312,19.685-58.738,58.855-64.627,97.445c-0.266,1.739-0.465,3.469-0.602,5.187&#10;&#9;&#9;c-2.64,33.967,20.123,63.415,54.769,63.411c30.216-0.003,65.015,0.005,97.815,0.003c8.849,0,16.4-7.299,15.72-16.123&#10;&#9;&#9;c-2.905-37.678,9.561-75.569,25.453-108.851C365.825,666.38,372.195,653.765,380.067,642.541z" style="fill: rgb(46, 0, 214);"/>
	<path fill="#65676B" d="M351.802,551.663c41.712,0,75.522-33.81,75.522-75.523c0-41.709-33.809-75.523-75.522-75.523&#10;&#9;&#9;c-41.708,0-75.526,33.813-75.526,75.523C276.277,517.852,310.094,551.663,351.802,551.663z" style="fill: rgb(46, 0, 214);"/>
</g>
</svg>